<mxfile host="app.diagrams.net" modified="2023-07-15T23:32:36.706Z" agent="Mozilla/5.0 (Windows NT 10.0; Win64; x64) AppleWebKit/537.36 (KHTML, like Gecko) Chrome/114.0.0.0 Safari/537.36" etag="FhseSydIa79GInDIc8NP" version="21.6.2" type="device">
  <diagram name="Side-1" id="ErCQwKdpXRA2XSfbXK5n">
    <mxGraphModel dx="2544" dy="949" grid="1" gridSize="10" guides="1" tooltips="1" connect="1" arrows="1" fold="1" page="1" pageScale="1" pageWidth="827" pageHeight="1169" math="0" shadow="0">
      <root>
        <mxCell id="0" />
        <mxCell id="1" parent="0" />
        <mxCell id="XocOM6HC5z4x2X3yC6n_-2" value="sequence:init" style="shape=umlFrame;whiteSpace=wrap;html=1;pointerEvents=0;width=100;height=30;" vertex="1" parent="1">
          <mxGeometry x="-120" y="50" width="510" height="330" as="geometry" />
        </mxCell>
        <mxCell id="XocOM6HC5z4x2X3yC6n_-3" value="User enters" style="html=1;shadow=0;dashed=0;align=center;verticalAlign=middle;shape=mxgraph.arrows2.arrow;dy=0.6;dx=40;notch=0;" vertex="1" parent="1">
          <mxGeometry x="-220" y="180" width="100" height="70" as="geometry" />
        </mxCell>
        <mxCell id="XocOM6HC5z4x2X3yC6n_-5" value="namespace&lt;br&gt;params" style="rounded=1;whiteSpace=wrap;html=1;" vertex="1" parent="1">
          <mxGeometry x="92.5" y="90" width="85" height="50" as="geometry" />
        </mxCell>
        <mxCell id="XocOM6HC5z4x2X3yC6n_-9" value="tag&lt;br&gt;params" style="rounded=1;whiteSpace=wrap;html=1;" vertex="1" parent="1">
          <mxGeometry x="250" y="210" width="70" height="150" as="geometry" />
        </mxCell>
        <mxCell id="XocOM6HC5z4x2X3yC6n_-11" value="pointId&lt;br&gt;params" style="rounded=1;whiteSpace=wrap;html=1;" vertex="1" parent="1">
          <mxGeometry x="-40" y="210" width="70" height="150" as="geometry" />
        </mxCell>
        <mxCell id="XocOM6HC5z4x2X3yC6n_-12" value="on &quot;go&quot;" style="html=1;shadow=0;dashed=0;align=center;verticalAlign=middle;shape=mxgraph.arrows2.arrow;dy=0.6;dx=40;notch=0;" vertex="1" parent="1">
          <mxGeometry x="390" y="180" width="100" height="70" as="geometry" />
        </mxCell>
        <mxCell id="XocOM6HC5z4x2X3yC6n_-14" value="sequence:start" style="shape=umlFrame;whiteSpace=wrap;html=1;pointerEvents=0;width=100;height=30;" vertex="1" parent="1">
          <mxGeometry x="490" y="50" width="510" height="330" as="geometry" />
        </mxCell>
        <mxCell id="XocOM6HC5z4x2X3yC6n_-15" value="dp_n" style="rounded=1;whiteSpace=wrap;html=1;" vertex="1" parent="1">
          <mxGeometry x="690" y="220" width="60" height="50" as="geometry" />
        </mxCell>
        <mxCell id="XocOM6HC5z4x2X3yC6n_-16" value="sequence:continue" style="shape=umlFrame;whiteSpace=wrap;html=1;pointerEvents=0;width=120;height=30;" vertex="1" parent="1">
          <mxGeometry x="-120" y="440" width="510" height="330" as="geometry" />
        </mxCell>
        <mxCell id="XocOM6HC5z4x2X3yC6n_-17" value="on selection" style="html=1;shadow=0;dashed=0;align=center;verticalAlign=middle;shape=mxgraph.arrows2.arrow;dy=0.6;dx=40;notch=0;" vertex="1" parent="1">
          <mxGeometry x="-220" y="570" width="100" height="70" as="geometry" />
        </mxCell>
        <mxCell id="XocOM6HC5z4x2X3yC6n_-26" value="&quot;Pick 1&quot;" style="text;html=1;strokeColor=none;fillColor=none;align=center;verticalAlign=middle;whiteSpace=wrap;rounded=0;" vertex="1" parent="1">
          <mxGeometry x="105" y="450" width="60" height="30" as="geometry" />
        </mxCell>
        <mxCell id="XocOM6HC5z4x2X3yC6n_-27" value="Legend&lt;br&gt;ns :&amp;nbsp; &amp;nbsp; &amp;nbsp; &amp;nbsp; &amp;nbsp; &amp;nbsp; &amp;nbsp; &amp;nbsp;namespace&lt;br&gt;dp :&amp;nbsp; &amp;nbsp; &amp;nbsp; &amp;nbsp; &amp;nbsp; &amp;nbsp; &amp;nbsp; &amp;nbsp; &amp;nbsp; &amp;nbsp;datapoint&lt;br&gt;b:&amp;nbsp; &amp;nbsp; &amp;nbsp; &amp;nbsp; &amp;nbsp; &amp;nbsp; &amp;nbsp; &amp;nbsp; &amp;nbsp; &amp;nbsp; &amp;nbsp; &amp;nbsp; &amp;nbsp; &amp;nbsp;button&lt;br&gt;nf: normalized frequency" style="text;html=1;strokeColor=none;fillColor=none;align=center;verticalAlign=middle;whiteSpace=wrap;rounded=0;" vertex="1" parent="1">
          <mxGeometry x="-370" y="50" width="170" height="90" as="geometry" />
        </mxCell>
        <mxCell id="XocOM6HC5z4x2X3yC6n_-29" value="sequence:continue" style="shape=umlFrame;whiteSpace=wrap;html=1;pointerEvents=0;width=120;height=30;" vertex="1" parent="1">
          <mxGeometry x="490" y="440" width="510" height="330" as="geometry" />
        </mxCell>
        <mxCell id="XocOM6HC5z4x2X3yC6n_-30" value="on &quot;go&quot;" style="html=1;shadow=0;dashed=0;align=center;verticalAlign=middle;shape=mxgraph.arrows2.arrow;dy=0.6;dx=40;notch=0;" vertex="1" parent="1">
          <mxGeometry x="390" y="570" width="100" height="70" as="geometry" />
        </mxCell>
        <mxCell id="XocOM6HC5z4x2X3yC6n_-31" value="dp_3" style="rounded=1;whiteSpace=wrap;html=1;" vertex="1" parent="1">
          <mxGeometry x="560" y="530" width="60" height="50" as="geometry" />
        </mxCell>
        <mxCell id="XocOM6HC5z4x2X3yC6n_-32" value="dp_4" style="rounded=1;whiteSpace=wrap;html=1;" vertex="1" parent="1">
          <mxGeometry x="660" y="480" width="60" height="50" as="geometry" />
        </mxCell>
        <mxCell id="XocOM6HC5z4x2X3yC6n_-33" value="dp_5" style="rounded=1;whiteSpace=wrap;html=1;" vertex="1" parent="1">
          <mxGeometry x="770" y="480" width="60" height="50" as="geometry" />
        </mxCell>
        <mxCell id="XocOM6HC5z4x2X3yC6n_-34" value="dp_6" style="rounded=1;whiteSpace=wrap;html=1;" vertex="1" parent="1">
          <mxGeometry x="870" y="530" width="60" height="50" as="geometry" />
        </mxCell>
        <mxCell id="XocOM6HC5z4x2X3yC6n_-35" value="dp_7" style="rounded=1;whiteSpace=wrap;html=1;" vertex="1" parent="1">
          <mxGeometry x="890" y="610" width="60" height="50" as="geometry" />
        </mxCell>
        <mxCell id="XocOM6HC5z4x2X3yC6n_-36" value="dp_8" style="rounded=1;whiteSpace=wrap;html=1;" vertex="1" parent="1">
          <mxGeometry x="870" y="700" width="60" height="50" as="geometry" />
        </mxCell>
        <mxCell id="XocOM6HC5z4x2X3yC6n_-37" value="dp_2" style="rounded=1;whiteSpace=wrap;html=1;" vertex="1" parent="1">
          <mxGeometry x="530" y="610" width="60" height="50" as="geometry" />
        </mxCell>
        <mxCell id="XocOM6HC5z4x2X3yC6n_-38" value="dp_1" style="rounded=1;whiteSpace=wrap;html=1;" vertex="1" parent="1">
          <mxGeometry x="560" y="700" width="60" height="50" as="geometry" />
        </mxCell>
        <mxCell id="XocOM6HC5z4x2X3yC6n_-39" value="&quot;Pick 1&quot;" style="text;html=1;strokeColor=none;fillColor=none;align=center;verticalAlign=middle;whiteSpace=wrap;rounded=0;" vertex="1" parent="1">
          <mxGeometry x="715" y="450" width="60" height="30" as="geometry" />
        </mxCell>
        <mxCell id="XocOM6HC5z4x2X3yC6n_-40" value="dp_0" style="rounded=1;whiteSpace=wrap;html=1;" vertex="1" parent="1">
          <mxGeometry x="715" y="580" width="60" height="50" as="geometry" />
        </mxCell>
        <mxCell id="XocOM6HC5z4x2X3yC6n_-41" value="b_go" style="rounded=1;whiteSpace=wrap;html=1;" vertex="1" parent="1">
          <mxGeometry x="105" y="190" width="60" height="50" as="geometry" />
        </mxCell>
        <mxCell id="XocOM6HC5z4x2X3yC6n_-43" value="&quot;Choose a Root&quot;" style="text;html=1;strokeColor=none;fillColor=none;align=center;verticalAlign=middle;whiteSpace=wrap;rounded=0;" vertex="1" parent="1">
          <mxGeometry x="692.5" y="60" width="105" height="30" as="geometry" />
        </mxCell>
        <mxCell id="XocOM6HC5z4x2X3yC6n_-44" value="dp_n" style="rounded=1;whiteSpace=wrap;html=1;" vertex="1" parent="1">
          <mxGeometry x="600" y="70" width="60" height="50" as="geometry" />
        </mxCell>
        <mxCell id="XocOM6HC5z4x2X3yC6n_-45" value="dp_n" style="rounded=1;whiteSpace=wrap;html=1;" vertex="1" parent="1">
          <mxGeometry x="710" y="110" width="60" height="50" as="geometry" />
        </mxCell>
        <mxCell id="XocOM6HC5z4x2X3yC6n_-46" value="dp_n" style="rounded=1;whiteSpace=wrap;html=1;" vertex="1" parent="1">
          <mxGeometry x="900" y="130" width="60" height="50" as="geometry" />
        </mxCell>
        <mxCell id="XocOM6HC5z4x2X3yC6n_-47" value="dp_n" style="rounded=1;whiteSpace=wrap;html=1;" vertex="1" parent="1">
          <mxGeometry x="800" y="250" width="60" height="50" as="geometry" />
        </mxCell>
        <mxCell id="XocOM6HC5z4x2X3yC6n_-48" value="dp_n" style="rounded=1;whiteSpace=wrap;html=1;" vertex="1" parent="1">
          <mxGeometry x="810" y="150" width="60" height="50" as="geometry" />
        </mxCell>
        <mxCell id="XocOM6HC5z4x2X3yC6n_-49" value="dp_n" style="rounded=1;whiteSpace=wrap;html=1;" vertex="1" parent="1">
          <mxGeometry x="600" y="270" width="60" height="50" as="geometry" />
        </mxCell>
        <mxCell id="XocOM6HC5z4x2X3yC6n_-50" value="dp_n" style="rounded=1;whiteSpace=wrap;html=1;" vertex="1" parent="1">
          <mxGeometry x="730" y="310" width="60" height="50" as="geometry" />
        </mxCell>
        <mxCell id="XocOM6HC5z4x2X3yC6n_-51" value="dp_n" style="rounded=1;whiteSpace=wrap;html=1;" vertex="1" parent="1">
          <mxGeometry x="530" y="210" width="60" height="50" as="geometry" />
        </mxCell>
        <mxCell id="XocOM6HC5z4x2X3yC6n_-52" value="dp_n" style="rounded=1;whiteSpace=wrap;html=1;" vertex="1" parent="1">
          <mxGeometry x="620" y="150" width="60" height="50" as="geometry" />
        </mxCell>
        <mxCell id="XocOM6HC5z4x2X3yC6n_-53" value="dp_n" style="rounded=1;whiteSpace=wrap;html=1;" vertex="1" parent="1">
          <mxGeometry x="830" y="70" width="60" height="50" as="geometry" />
        </mxCell>
        <mxCell id="XocOM6HC5z4x2X3yC6n_-54" value="dp_n" style="rounded=1;whiteSpace=wrap;html=1;" vertex="1" parent="1">
          <mxGeometry x="910" y="290" width="60" height="50" as="geometry" />
        </mxCell>
        <mxCell id="XocOM6HC5z4x2X3yC6n_-55" value="dp_n" style="rounded=1;whiteSpace=wrap;html=1;" vertex="1" parent="1">
          <mxGeometry x="880" y="210" width="60" height="50" as="geometry" />
        </mxCell>
        <mxCell id="XocOM6HC5z4x2X3yC6n_-56" value="namespace&lt;br&gt;params" style="rounded=1;whiteSpace=wrap;html=1;" vertex="1" parent="1">
          <mxGeometry x="92.5" y="480" width="85" height="50" as="geometry" />
        </mxCell>
        <mxCell id="XocOM6HC5z4x2X3yC6n_-57" value="tag&lt;br&gt;params" style="rounded=1;whiteSpace=wrap;html=1;" vertex="1" parent="1">
          <mxGeometry x="245" y="600" width="70" height="150" as="geometry" />
        </mxCell>
        <mxCell id="XocOM6HC5z4x2X3yC6n_-58" value="pointId&lt;br&gt;params" style="rounded=1;whiteSpace=wrap;html=1;" vertex="1" parent="1">
          <mxGeometry x="-45" y="600" width="70" height="150" as="geometry" />
        </mxCell>
        <mxCell id="XocOM6HC5z4x2X3yC6n_-59" value="b_go" style="rounded=1;whiteSpace=wrap;html=1;" vertex="1" parent="1">
          <mxGeometry x="105" y="680" width="60" height="50" as="geometry" />
        </mxCell>
        <mxCell id="XocOM6HC5z4x2X3yC6n_-60" value="dp_n+1" style="rounded=1;whiteSpace=wrap;html=1;" vertex="1" parent="1">
          <mxGeometry x="105" y="580" width="60" height="50" as="geometry" />
        </mxCell>
        <mxCell id="XocOM6HC5z4x2X3yC6n_-61" value="" style="endArrow=none;html=1;rounded=0;" edge="1" parent="1">
          <mxGeometry width="50" height="50" relative="1" as="geometry">
            <mxPoint x="720" y="580" as="sourcePoint" />
            <mxPoint x="690" y="530" as="targetPoint" />
          </mxGeometry>
        </mxCell>
        <mxCell id="XocOM6HC5z4x2X3yC6n_-62" value="" style="endArrow=none;html=1;rounded=0;exitX=0.867;exitY=-0.018;exitDx=0;exitDy=0;exitPerimeter=0;" edge="1" parent="1" source="XocOM6HC5z4x2X3yC6n_-40">
          <mxGeometry width="50" height="50" relative="1" as="geometry">
            <mxPoint x="828.5" y="581" as="sourcePoint" />
            <mxPoint x="797.5" y="530" as="targetPoint" />
          </mxGeometry>
        </mxCell>
        <mxCell id="XocOM6HC5z4x2X3yC6n_-63" value="" style="endArrow=none;html=1;rounded=0;exitX=1;exitY=0.222;exitDx=0;exitDy=0;exitPerimeter=0;" edge="1" parent="1" source="XocOM6HC5z4x2X3yC6n_-40">
          <mxGeometry width="50" height="50" relative="1" as="geometry">
            <mxPoint x="839.5" y="609" as="sourcePoint" />
            <mxPoint x="870" y="560" as="targetPoint" />
          </mxGeometry>
        </mxCell>
        <mxCell id="XocOM6HC5z4x2X3yC6n_-64" value="" style="endArrow=none;html=1;rounded=0;exitX=1.017;exitY=0.703;exitDx=0;exitDy=0;exitPerimeter=0;" edge="1" parent="1" source="XocOM6HC5z4x2X3yC6n_-40">
          <mxGeometry width="50" height="50" relative="1" as="geometry">
            <mxPoint x="797.5" y="660" as="sourcePoint" />
            <mxPoint x="890.5" y="631" as="targetPoint" />
          </mxGeometry>
        </mxCell>
        <mxCell id="XocOM6HC5z4x2X3yC6n_-65" value="" style="endArrow=none;html=1;rounded=0;exitX=1;exitY=1;exitDx=0;exitDy=0;entryX=0;entryY=0;entryDx=0;entryDy=0;" edge="1" parent="1" source="XocOM6HC5z4x2X3yC6n_-40" target="XocOM6HC5z4x2X3yC6n_-36">
          <mxGeometry width="50" height="50" relative="1" as="geometry">
            <mxPoint x="764.5" y="674" as="sourcePoint" />
            <mxPoint x="880" y="700" as="targetPoint" />
          </mxGeometry>
        </mxCell>
        <mxCell id="XocOM6HC5z4x2X3yC6n_-66" value="" style="endArrow=none;html=1;rounded=0;exitX=0;exitY=1;exitDx=0;exitDy=0;entryX=1;entryY=0;entryDx=0;entryDy=0;" edge="1" parent="1" source="XocOM6HC5z4x2X3yC6n_-40" target="XocOM6HC5z4x2X3yC6n_-38">
          <mxGeometry width="50" height="50" relative="1" as="geometry">
            <mxPoint x="705" y="630" as="sourcePoint" />
            <mxPoint x="800" y="700" as="targetPoint" />
          </mxGeometry>
        </mxCell>
        <mxCell id="XocOM6HC5z4x2X3yC6n_-67" value="" style="endArrow=none;html=1;rounded=0;exitX=0.005;exitY=0.191;exitDx=0;exitDy=0;exitPerimeter=0;" edge="1" parent="1" source="XocOM6HC5z4x2X3yC6n_-40">
          <mxGeometry width="50" height="50" relative="1" as="geometry">
            <mxPoint x="651" y="610" as="sourcePoint" />
            <mxPoint x="620" y="559" as="targetPoint" />
          </mxGeometry>
        </mxCell>
        <mxCell id="XocOM6HC5z4x2X3yC6n_-68" value="" style="endArrow=none;html=1;rounded=0;exitX=-0.007;exitY=0.696;exitDx=0;exitDy=0;exitPerimeter=0;entryX=1.018;entryY=0.354;entryDx=0;entryDy=0;entryPerimeter=0;" edge="1" parent="1" source="XocOM6HC5z4x2X3yC6n_-40" target="XocOM6HC5z4x2X3yC6n_-37">
          <mxGeometry width="50" height="50" relative="1" as="geometry">
            <mxPoint x="715" y="601" as="sourcePoint" />
            <mxPoint x="620" y="570" as="targetPoint" />
          </mxGeometry>
        </mxCell>
        <mxCell id="XocOM6HC5z4x2X3yC6n_-69" value="" style="curved=1;endArrow=classic;html=1;rounded=0;exitX=0.513;exitY=1.001;exitDx=0;exitDy=0;exitPerimeter=0;entryX=0.505;entryY=1.007;entryDx=0;entryDy=0;entryPerimeter=0;" edge="1" parent="1">
          <mxGeometry width="50" height="50" relative="1" as="geometry">
            <mxPoint x="744.48" y="779.9999999999999" as="sourcePoint" />
            <mxPoint x="135.52999999999972" y="791.9899999999999" as="targetPoint" />
            <Array as="points">
              <mxPoint x="637.98" y="899.68" />
              <mxPoint x="390" y="910" />
              <mxPoint x="260" y="880" />
            </Array>
          </mxGeometry>
        </mxCell>
        <mxCell id="XocOM6HC5z4x2X3yC6n_-70" value="repeat..." style="text;html=1;strokeColor=none;fillColor=none;align=center;verticalAlign=middle;whiteSpace=wrap;rounded=0;" vertex="1" parent="1">
          <mxGeometry x="414" y="860" width="60" height="30" as="geometry" />
        </mxCell>
        <mxCell id="XocOM6HC5z4x2X3yC6n_-71" value="b_finish" style="rounded=1;whiteSpace=wrap;html=1;" vertex="1" parent="1">
          <mxGeometry x="715" y="690" width="60" height="50" as="geometry" />
        </mxCell>
        <mxCell id="XocOM6HC5z4x2X3yC6n_-80" value="sequence:continue" style="shape=umlFrame;whiteSpace=wrap;html=1;pointerEvents=0;width=120;height=30;" vertex="1" parent="1">
          <mxGeometry x="-120" y="930" width="510" height="330" as="geometry" />
        </mxCell>
        <mxCell id="XocOM6HC5z4x2X3yC6n_-81" value="on &quot;finish&quot;" style="html=1;shadow=0;dashed=0;align=center;verticalAlign=middle;shape=mxgraph.arrows2.arrow;dy=0.6;dx=40;notch=0;" vertex="1" parent="1">
          <mxGeometry x="-220" y="1010" width="100" height="70" as="geometry" />
        </mxCell>
        <mxCell id="XocOM6HC5z4x2X3yC6n_-92" style="edgeStyle=orthogonalEdgeStyle;rounded=0;orthogonalLoop=1;jettySize=auto;html=1;" edge="1" parent="1" source="XocOM6HC5z4x2X3yC6n_-88" target="XocOM6HC5z4x2X3yC6n_-89">
          <mxGeometry relative="1" as="geometry" />
        </mxCell>
        <mxCell id="XocOM6HC5z4x2X3yC6n_-105" value="NF" style="edgeLabel;html=1;align=center;verticalAlign=middle;resizable=0;points=[];" vertex="1" connectable="0" parent="XocOM6HC5z4x2X3yC6n_-92">
          <mxGeometry x="0.086" y="-1" relative="1" as="geometry">
            <mxPoint x="-5" y="-16" as="offset" />
          </mxGeometry>
        </mxCell>
        <mxCell id="XocOM6HC5z4x2X3yC6n_-88" value="dp_root" style="rounded=1;whiteSpace=wrap;html=1;" vertex="1" parent="1">
          <mxGeometry x="-100" y="1070" width="60" height="50" as="geometry" />
        </mxCell>
        <mxCell id="XocOM6HC5z4x2X3yC6n_-94" style="edgeStyle=orthogonalEdgeStyle;rounded=0;orthogonalLoop=1;jettySize=auto;html=1;entryX=0;entryY=0.5;entryDx=0;entryDy=0;" edge="1" parent="1" source="XocOM6HC5z4x2X3yC6n_-89" target="XocOM6HC5z4x2X3yC6n_-95">
          <mxGeometry relative="1" as="geometry">
            <mxPoint x="130" y="1095" as="targetPoint" />
          </mxGeometry>
        </mxCell>
        <mxCell id="XocOM6HC5z4x2X3yC6n_-106" value="NF" style="edgeLabel;html=1;align=center;verticalAlign=middle;resizable=0;points=[];" vertex="1" connectable="0" parent="XocOM6HC5z4x2X3yC6n_-94">
          <mxGeometry x="-0.1917" relative="1" as="geometry">
            <mxPoint y="-15" as="offset" />
          </mxGeometry>
        </mxCell>
        <mxCell id="XocOM6HC5z4x2X3yC6n_-89" value="dp_n+1" style="rounded=1;whiteSpace=wrap;html=1;" vertex="1" parent="1">
          <mxGeometry x="32.5" y="1070" width="60" height="50" as="geometry" />
        </mxCell>
        <mxCell id="XocOM6HC5z4x2X3yC6n_-90" value="dp_n+n" style="rounded=1;whiteSpace=wrap;html=1;" vertex="1" parent="1">
          <mxGeometry x="300" y="1070" width="60" height="50" as="geometry" />
        </mxCell>
        <mxCell id="XocOM6HC5z4x2X3yC6n_-98" style="edgeStyle=orthogonalEdgeStyle;rounded=0;orthogonalLoop=1;jettySize=auto;html=1;entryX=0;entryY=0.5;entryDx=0;entryDy=0;" edge="1" parent="1" source="XocOM6HC5z4x2X3yC6n_-95" target="XocOM6HC5z4x2X3yC6n_-90">
          <mxGeometry relative="1" as="geometry" />
        </mxCell>
        <mxCell id="XocOM6HC5z4x2X3yC6n_-95" value="o o o" style="text;html=1;strokeColor=none;fillColor=none;align=center;verticalAlign=middle;whiteSpace=wrap;rounded=0;" vertex="1" parent="1">
          <mxGeometry x="177.5" y="1080" width="40" height="30" as="geometry" />
        </mxCell>
        <mxCell id="XocOM6HC5z4x2X3yC6n_-99" value="dp" style="rounded=1;whiteSpace=wrap;html=1;" vertex="1" parent="1">
          <mxGeometry x="105" y="1030" width="35" height="30" as="geometry" />
        </mxCell>
        <mxCell id="XocOM6HC5z4x2X3yC6n_-100" value="dp" style="rounded=1;whiteSpace=wrap;html=1;" vertex="1" parent="1">
          <mxGeometry x="70" y="990" width="35" height="30" as="geometry" />
        </mxCell>
        <mxCell id="XocOM6HC5z4x2X3yC6n_-101" value="dp" style="rounded=1;whiteSpace=wrap;html=1;" vertex="1" parent="1">
          <mxGeometry x="25" y="960" width="35" height="30" as="geometry" />
        </mxCell>
        <mxCell id="XocOM6HC5z4x2X3yC6n_-102" value="dp" style="rounded=1;whiteSpace=wrap;html=1;" vertex="1" parent="1">
          <mxGeometry x="105" y="1120" width="35" height="30" as="geometry" />
        </mxCell>
        <mxCell id="XocOM6HC5z4x2X3yC6n_-103" value="dp" style="rounded=1;whiteSpace=wrap;html=1;" vertex="1" parent="1">
          <mxGeometry x="70" y="1160" width="35" height="30" as="geometry" />
        </mxCell>
        <mxCell id="XocOM6HC5z4x2X3yC6n_-104" value="dp" style="rounded=1;whiteSpace=wrap;html=1;" vertex="1" parent="1">
          <mxGeometry x="25" y="1190" width="35" height="30" as="geometry" />
        </mxCell>
        <mxCell id="XocOM6HC5z4x2X3yC6n_-108" value="" style="endArrow=none;html=1;rounded=0;exitX=0.25;exitY=0;exitDx=0;exitDy=0;" edge="1" parent="1" source="XocOM6HC5z4x2X3yC6n_-89">
          <mxGeometry width="50" height="50" relative="1" as="geometry">
            <mxPoint x="-10" y="1040" as="sourcePoint" />
            <mxPoint x="40" y="990" as="targetPoint" />
          </mxGeometry>
        </mxCell>
        <mxCell id="XocOM6HC5z4x2X3yC6n_-109" value="" style="endArrow=none;html=1;rounded=0;exitX=0.25;exitY=1;exitDx=0;exitDy=0;entryX=0.5;entryY=0;entryDx=0;entryDy=0;" edge="1" parent="1" source="XocOM6HC5z4x2X3yC6n_-89" target="XocOM6HC5z4x2X3yC6n_-104">
          <mxGeometry width="50" height="50" relative="1" as="geometry">
            <mxPoint x="58" y="1080" as="sourcePoint" />
            <mxPoint x="50" y="1000" as="targetPoint" />
          </mxGeometry>
        </mxCell>
        <mxCell id="XocOM6HC5z4x2X3yC6n_-110" value="" style="endArrow=none;html=1;rounded=0;exitX=0.75;exitY=1;exitDx=0;exitDy=0;entryX=0.5;entryY=0;entryDx=0;entryDy=0;" edge="1" parent="1" source="XocOM6HC5z4x2X3yC6n_-89" target="XocOM6HC5z4x2X3yC6n_-103">
          <mxGeometry width="50" height="50" relative="1" as="geometry">
            <mxPoint x="58" y="1130" as="sourcePoint" />
            <mxPoint x="53" y="1200" as="targetPoint" />
          </mxGeometry>
        </mxCell>
        <mxCell id="XocOM6HC5z4x2X3yC6n_-111" value="" style="endArrow=none;html=1;rounded=0;exitX=1.004;exitY=0.86;exitDx=0;exitDy=0;entryX=0;entryY=0;entryDx=0;entryDy=0;exitPerimeter=0;" edge="1" parent="1" source="XocOM6HC5z4x2X3yC6n_-89" target="XocOM6HC5z4x2X3yC6n_-102">
          <mxGeometry width="50" height="50" relative="1" as="geometry">
            <mxPoint x="92.5" y="1115" as="sourcePoint" />
            <mxPoint x="102.5" y="1155" as="targetPoint" />
          </mxGeometry>
        </mxCell>
        <mxCell id="XocOM6HC5z4x2X3yC6n_-112" value="" style="endArrow=none;html=1;rounded=0;exitX=1;exitY=0.131;exitDx=0;exitDy=0;entryX=0.019;entryY=1.039;entryDx=0;entryDy=0;exitPerimeter=0;entryPerimeter=0;" edge="1" parent="1" source="XocOM6HC5z4x2X3yC6n_-89" target="XocOM6HC5z4x2X3yC6n_-99">
          <mxGeometry width="50" height="50" relative="1" as="geometry">
            <mxPoint x="92.5" y="1080" as="sourcePoint" />
            <mxPoint x="104.5" y="1087" as="targetPoint" />
          </mxGeometry>
        </mxCell>
        <mxCell id="XocOM6HC5z4x2X3yC6n_-113" value="" style="endArrow=none;html=1;rounded=0;exitX=0.75;exitY=0;exitDx=0;exitDy=0;entryX=0.5;entryY=1;entryDx=0;entryDy=0;" edge="1" parent="1" source="XocOM6HC5z4x2X3yC6n_-89" target="XocOM6HC5z4x2X3yC6n_-100">
          <mxGeometry width="50" height="50" relative="1" as="geometry">
            <mxPoint x="70" y="1070" as="sourcePoint" />
            <mxPoint x="83" y="1054" as="targetPoint" />
          </mxGeometry>
        </mxCell>
        <mxCell id="XocOM6HC5z4x2X3yC6n_-114" value="on empty response*" style="html=1;shadow=0;dashed=0;align=center;verticalAlign=middle;shape=mxgraph.arrows2.arrow;dy=0.6;dx=40;notch=0;" vertex="1" parent="1">
          <mxGeometry x="-260" y="1130" width="140" height="70" as="geometry" />
        </mxCell>
        <mxCell id="XocOM6HC5z4x2X3yC6n_-116" value="*when points are returned as a resuld of param settings" style="text;html=1;strokeColor=none;fillColor=none;align=center;verticalAlign=middle;whiteSpace=wrap;rounded=0;" vertex="1" parent="1">
          <mxGeometry x="-260" y="1190" width="90" height="60" as="geometry" />
        </mxCell>
        <mxCell id="XocOM6HC5z4x2X3yC6n_-117" value="Top n alternatives" style="text;html=1;strokeColor=none;fillColor=none;align=center;verticalAlign=middle;whiteSpace=wrap;rounded=0;" vertex="1" parent="1">
          <mxGeometry x="70" y="950" width="80" height="30" as="geometry" />
        </mxCell>
      </root>
    </mxGraphModel>
  </diagram>
</mxfile>
